<svg xmlns="http://www.w3.org/2000/svg" width="25.978" height="26.503" viewBox="0 0 25.978 26.503">
  <path id="icons8-microsoft-excel" d="M15.275.022.431,2.838A.539.539,0,0,0,0,3.368V23.15a.539.539,0,0,0,.431.53L15.275,26.5a.553.553,0,0,0,.1.017.51.51,0,0,0,.331-.116.549.549,0,0,0,.2-.414V.535a.549.549,0,0,0-.2-.414A.509.509,0,0,0,15.275.022Zm1.69,3.164V6.9h1.06v1.06h-1.06v2.651h1.06v1.06h-1.06v2.651h1.06v1.06h-1.06v3.181h1.06v1.06h-1.06v3.711h7.952a1.062,1.062,0,0,0,1.06-1.06V4.246a1.062,1.062,0,0,0-1.06-1.06ZM19.086,6.9h4.241v1.06H19.086ZM3.545,8.322H6.263l1.425,2.966a5.032,5.032,0,0,1,.3.845H8c.056-.193.164-.495.315-.878L9.891,8.322h2.485l-2.966,4.9,3.048,5H9.825L8.1,15a2.849,2.849,0,0,1-.2-.663H7.886a5.3,5.3,0,0,1-.232.7l-1.723,3.2H3.28l3.164-4.954Zm15.54,2.286h4.241v1.06H19.086Zm0,3.711h4.241v1.06H19.086Zm0,4.241h4.241v1.06H19.086Z" transform="translate(0 -0.011)" fill="#fff"/>
</svg>
