<svg xmlns="http://www.w3.org/2000/svg" width="95.371" height="85.807" viewBox="0 0 95.371 85.807">
  <g id="paper-plane-2563" transform="translate(126.019 113.385)">
    <g id="Сгруппировать_1958" data-name="Сгруппировать 1958" transform="translate(-126.019 -113.385)">
      <path id="Контур_1160" data-name="Контур 1160" d="M95.373,14.435a1.564,1.564,0,0,0,0-.45c0-.022,0-.043-.005-.066a1.6,1.6,0,0,0-.194-.49c-.01-.017-.011-.035-.02-.052s-.041-.038-.058-.063a1.387,1.387,0,0,0-.107-.155,1.634,1.634,0,0,0-.18-.153c-.033-.026-.061-.057-.1-.081a1.575,1.575,0,0,0-.462-.221c-.03-.008-.059-.01-.089-.016a1.565,1.565,0,0,0-.428-.036c-.049,0-.094.006-.143.013s-.084,0-.125.011L1.26,33.3a1.589,1.589,0,0,0-.407,2.95l24.93,13.418,7.765,24.757c.008.026.026.046.036.071a2.249,2.249,0,0,0,.308.5c.023.026.032.06.057.085s.053.03.077.051a1.583,1.583,0,0,0,.344.226,1.428,1.428,0,0,0,.144.074,1.565,1.565,0,0,0,.548.106H35.1a1.562,1.562,0,0,0,.539-.113c.043-.017.079-.047.121-.067a1.585,1.585,0,0,0,.37-.249c.021-.019.049-.025.069-.047L48.925,62.12,73.491,75.343a1.589,1.589,0,0,0,2.265-.9L95.319,14.724c.015-.047.016-.1.026-.143A1.366,1.366,0,0,0,95.373,14.435Zm-13.3,4.046L27.12,46.777,6.113,35.469Zm-3.3,5.277L39.025,54.25a.053.053,0,0,0-.007.008,1.555,1.555,0,0,0-.312.333c-.019.027-.037.053-.054.081s-.041.055-.058.086a1.559,1.559,0,0,0-.129.327c0,.005-.005.01-.006.015L34.942,68.248l-5.92-18.874ZM38.155,68.537l2.854-10.674,5,2.691Zm35.17,3.111L42.91,55.276,90.7,18.62Z" transform="translate(-0.017 -12.651)" fill="#e9a6a6"/>
      <path id="Контур_1161" data-name="Контур 1161" d="M33.518,208.9a1.59,1.59,0,0,1-1.134-2.7l15.147-15.4a1.59,1.59,0,0,1,2.267,2.229l-15.146,15.4A1.585,1.585,0,0,1,33.518,208.9Z" transform="translate(-19.853 -123.094)" fill="#e9a6a6"/>
      <path id="Контур_1162" data-name="Контур 1162" d="M99.424,192.409a1.59,1.59,0,0,1-1.134-2.7l15.146-15.4a1.59,1.59,0,1,1,2.267,2.229l-15.145,15.4A1.589,1.589,0,0,1,99.424,192.409Z" transform="translate(-60.82 -112.843)" fill="#e9a6a6"/>
      <path id="Контур_1163" data-name="Контур 1163" d="M21.012,164.586a1.59,1.59,0,0,1-1.134-2.7l11.07-11.253a1.59,1.59,0,1,1,2.267,2.229L22.146,164.11A1.586,1.586,0,0,1,21.012,164.586Z" transform="translate(-12.079 -98.123)" fill="#e9a6a6"/>
    </g>
  </g>
</svg>
