<svg xmlns="http://www.w3.org/2000/svg" xmlns:xlink="http://www.w3.org/1999/xlink" width="99.436" height="17.11" viewBox="0 0 99.436 17.11">
  <defs>
    <clipPath id="clip-path">
      <rect id="Прямоугольник_2105" data-name="Прямоугольник 2105" width="99.436" height="17.11" fill="#fff"/>
    </clipPath>
  </defs>
  <g id="Сгруппировать_1924" data-name="Сгруппировать 1924" transform="translate(0 0)">
    <g id="Сгруппировать_1923" data-name="Сгруппировать 1923" transform="translate(0 0)" clip-path="url(#clip-path)">
      <path id="Контур_1146" data-name="Контур 1146" d="M1.6,33.393H0V21.826H1.6v1.813A4.162,4.162,0,0,1,3.117,21.97,4.068,4.068,0,0,1,5.281,21.4a3.877,3.877,0,0,1,2.158.58,3.708,3.708,0,0,1,1.376,1.7,4.683,4.683,0,0,1,1.7-1.715,4.666,4.666,0,0,1,2.334-.567,3.8,3.8,0,0,1,2.895,1.115A4.267,4.267,0,0,1,16.8,25.569v7.824h-1.6V26.208a3.993,3.993,0,0,0-.7-2.556,2.519,2.519,0,0,0-2.08-.861,2.789,2.789,0,0,0-2.432,1.082A5.967,5.967,0,0,0,9.206,27.3v6.09H7.615V26.208a4.108,4.108,0,0,0-.665-2.595,2.494,2.494,0,0,0-2.06-.822,2.871,2.871,0,0,0-2.491,1.1A5.859,5.859,0,0,0,1.6,27.3Z" transform="translate(0 -17.533)" fill="#fff"/>
      <path id="Контур_1147" data-name="Контур 1147" d="M233.784,35.345l6.455-10.119h-6.011V23.779h8.789l-6.4,10.119H243.2v1.447Z" transform="translate(-191.574 -19.485)" fill="#fff"/>
      <path id="Контур_1148" data-name="Контур 1148" d="M293.031,33.392h-1.6V21.825h1.6v1.813a4.162,4.162,0,0,1,1.513-1.669,4.068,4.068,0,0,1,2.165-.574,3.876,3.876,0,0,1,2.158.58,3.708,3.708,0,0,1,1.376,1.7,4.411,4.411,0,0,1,4.03-2.282,3.8,3.8,0,0,1,2.895,1.115,4.267,4.267,0,0,1,1.056,3.058v7.824h-1.6V26.207a3.993,3.993,0,0,0-.7-2.556,2.519,2.519,0,0,0-2.08-.861,2.789,2.789,0,0,0-2.432,1.082,5.968,5.968,0,0,0-.776,3.43v6.09h-1.591V26.207a4.108,4.108,0,0,0-.665-2.595,2.494,2.494,0,0,0-2.06-.822,2.871,2.871,0,0,0-2.491,1.1,5.86,5.86,0,0,0-.8,3.416Z" transform="translate(-238.809 -17.532)" fill="#fff"/>
      <path id="Контур_1149" data-name="Контур 1149" d="M403.07,33.391V31.279a4.2,4.2,0,0,1-4.055,2.621,5.1,5.1,0,0,1-4.01-1.708,6.536,6.536,0,0,1-1.519-4.512,6.729,6.729,0,0,1,1.5-4.532,5.225,5.225,0,0,1,6.422-1.108,4.237,4.237,0,0,1,1.663,1.9V21.825h1.6V33.391Zm-7.8-5.659a5.257,5.257,0,0,0,1.011,3.456,3.548,3.548,0,0,0,2.888,1.213,3.471,3.471,0,0,0,2.875-1.323,5.719,5.719,0,0,0,1.05-3.645,4.98,4.98,0,0,0-1.043-3.345,3.562,3.562,0,0,0-2.856-1.219,3.5,3.5,0,0,0-2.869,1.3,5.492,5.492,0,0,0-1.056,3.567" transform="translate(-322.441 -17.531)" fill="#fff"/>
      <path id="Контур_1150" data-name="Контур 1150" d="M470.413,33.392V21.825h1.526v1.787a4.7,4.7,0,0,1,1.728-1.663,4.866,4.866,0,0,1,2.354-.554,3.8,3.8,0,0,1,4.16,4.147v7.85h-1.63V26.259a3.877,3.877,0,0,0-.724-2.575,2.793,2.793,0,0,0-2.237-.841,3.25,3.25,0,0,0-2.706,1.089,5.477,5.477,0,0,0-.867,3.423v6.038Z" transform="translate(-385.478 -17.532)" fill="#fff"/>
      <path id="Контур_1151" data-name="Контур 1151" d="M536.938,1.226A1.171,1.171,0,0,1,537.3.359,1.2,1.2,0,0,1,538.177,0a1.226,1.226,0,0,1,.88.359,1.161,1.161,0,0,1,.371.867,1.176,1.176,0,0,1-.358.874,1.225,1.225,0,0,1-.893.352,1.208,1.208,0,0,1-.88-.352,1.175,1.175,0,0,1-.359-.874m.4,3.068H539V15.86h-1.656Z" transform="translate(-439.992 0)" fill="#fff"/>
      <path id="Контур_1152" data-name="Контур 1152" d="M108.278,29.661a7.172,7.172,0,1,1,7.172-7.172,7.181,7.181,0,0,1-7.172,7.172m0-12.786a5.614,5.614,0,1,0,5.614,5.614,5.62,5.62,0,0,0-5.614-5.614" transform="translate(-82.851 -12.551)" fill="#fff"/>
      <path id="Контур_1153" data-name="Контур 1153" d="M158.158,16.169a3.16,3.16,0,0,1-.2.356.657.657,0,0,1-.1.133l-.006.005,0,0-.005,0c-.065.063-.145.11-.209.174a2.285,2.285,0,0,0-.186.242.438.438,0,0,1-.241.175l-.009,0,0,0a.075.075,0,0,1-.011.108.5.5,0,0,1-.227.107c-.018.011-.038.021-.057.031a5.591,5.591,0,1,1-.611-.036h0c-.107-.061-.208-.139-.312-.211a.093.093,0,0,1-.029-.031,3.425,3.425,0,0,1-.459-.282,1.087,1.087,0,0,1-.541-.9,7.176,7.176,0,1,0,3.2.122" transform="translate(-122.199 -13.15)" fill="#fff"/>
      <path id="Контур_1154" data-name="Контур 1154" d="M176.081,1.205h-4.014l-1.724,1.724,3.731,3.731.822-.823L177.8,2.929Zm-2.007,4.177L174,5.3h0c-.005,0-.007-.009-.012-.013l-2.363-2.363.821-.82h3.265l.821.82-1.486,1.486Z" transform="translate(-139.587 -0.987)" fill="#fff"/>
    </g>
  </g>
</svg>
