<svg xmlns="http://www.w3.org/2000/svg" width="15.739" height="19.7" viewBox="0 0 15.739 19.7">
  <g id="Icon_ionic-ios-notifications-outline" data-name="Icon ionic-ios-notifications-outline" transform="translate(-6.775 -3.93)">
    <path id="Контур_1202" data-name="Контур 1202" d="M18.671,28.336a.638.638,0,0,0-.625.5,1.234,1.234,0,0,1-.246.537.931.931,0,0,1-.793.291.946.946,0,0,1-.793-.291,1.234,1.234,0,0,1-.246-.537.638.638,0,0,0-.625-.5h0a.642.642,0,0,0-.625.783,2.2,2.2,0,0,0,2.29,1.827,2.2,2.2,0,0,0,2.29-1.827.644.644,0,0,0-.625-.783Z" transform="translate(-2.376 -7.315)" fill="#fff"/>
    <path id="Контур_1203" data-name="Контур 1203" d="M22.317,18.52c-.758-1-2.25-1.585-2.25-6.061,0-4.594-2.029-6.44-3.919-6.884-.177-.044-.305-.1-.305-.291V5.142A1.208,1.208,0,0,0,14.66,3.93h-.03a1.208,1.208,0,0,0-1.182,1.211v.143c0,.182-.128.246-.305.291-1.9.448-3.919,2.29-3.919,6.884,0,4.476-1.492,5.057-2.25,6.061a.977.977,0,0,0,.783,1.566H21.549A.978.978,0,0,0,22.317,18.52Zm-1.92.286H8.914a.216.216,0,0,1-.162-.359A5.965,5.965,0,0,0,9.786,16.8a11.158,11.158,0,0,0,.7-4.343,7.551,7.551,0,0,1,1.029-4.274,3.159,3.159,0,0,1,1.906-1.359,1.726,1.726,0,0,0,.916-.517.389.389,0,0,1,.586-.01,1.784,1.784,0,0,0,.926.527,3.159,3.159,0,0,1,1.906,1.359,7.551,7.551,0,0,1,1.029,4.274,11.158,11.158,0,0,0,.7,4.343,6.033,6.033,0,0,0,1.059,1.669A.2.2,0,0,1,20.4,18.805Z" transform="translate(0 0)" fill="#fff"/>
  </g>
</svg>
