<svg xmlns="http://www.w3.org/2000/svg" xmlns:xlink="http://www.w3.org/1999/xlink" width="188.709" height="42.655" viewBox="0 0 188.709 42.655">
  <defs>
    <clipPath id="clip-path">
      <rect id="Прямоугольник_1621" data-name="Прямоугольник 1621" width="188.709" height="42.655" fill="none"/>
    </clipPath>
  </defs>
  <g id="Сгруппировать_1849" data-name="Сгруппировать 1849" transform="translate(0 77)">
    <g id="Сгруппировать_1848" data-name="Сгруппировать 1848" transform="translate(0 -77)" clip-path="url(#clip-path)">
      <path id="Контур_1111" data-name="Контур 1111" d="M3.044,44.163H0V22.212H3.044v3.44a7.9,7.9,0,0,1,2.871-3.168A7.721,7.721,0,0,1,10.023,21.4a7.358,7.358,0,0,1,4.1,1.1,7.038,7.038,0,0,1,2.611,3.229,8.887,8.887,0,0,1,3.218-3.254,8.854,8.854,0,0,1,4.43-1.076,7.205,7.205,0,0,1,5.494,2.116,8.1,8.1,0,0,1,2,5.8V44.163H28.831V30.527a7.578,7.578,0,0,0-1.324-4.851,4.781,4.781,0,0,0-3.947-1.633A5.292,5.292,0,0,0,18.944,26.1q-1.473,2.054-1.472,6.508V44.163H14.452V30.527A7.8,7.8,0,0,0,13.19,25.6a4.733,4.733,0,0,0-3.91-1.559,5.448,5.448,0,0,0-4.727,2.079q-1.51,2.079-1.51,6.483Z" transform="translate(0 -14.064)" fill="#e9a6a6"/>
      <path id="Контур_1112" data-name="Контур 1112" d="M233.784,45.729l12.25-19.2H234.626V23.779h16.68l-12.151,19.2h12.5v2.747Z" transform="translate(-153.678 -15.631)" fill="#e9a6a6"/>
      <path id="Контур_1113" data-name="Контур 1113" d="M294.471,44.163h-3.044V22.212h3.044v3.44a7.9,7.9,0,0,1,2.871-3.168A7.721,7.721,0,0,1,301.45,21.4a7.355,7.355,0,0,1,4.1,1.1,7.038,7.038,0,0,1,2.611,3.229A8.371,8.371,0,0,1,315.8,21.4a7.2,7.2,0,0,1,5.494,2.116,8.1,8.1,0,0,1,2,5.8V44.163h-3.044V30.527a7.577,7.577,0,0,0-1.324-4.85,4.781,4.781,0,0,0-3.947-1.633,5.292,5.292,0,0,0-4.616,2.054q-1.473,2.055-1.472,6.509V44.163h-3.019V30.527a7.8,7.8,0,0,0-1.262-4.924,4.733,4.733,0,0,0-3.91-1.559,5.448,5.448,0,0,0-4.726,2.079q-1.51,2.079-1.51,6.484Z" transform="translate(-191.569 -14.064)" fill="#e9a6a6"/>
      <path id="Контур_1114" data-name="Контур 1114" d="M411.675,44.162V40.153a7.972,7.972,0,0,1-7.7,4.974,9.688,9.688,0,0,1-7.61-3.242,12.4,12.4,0,0,1-2.883-8.562,12.77,12.77,0,0,1,2.846-8.6,9.916,9.916,0,0,1,12.188-2.1,8.041,8.041,0,0,1,3.155,3.6V22.211h3.044V44.162Zm-14.8-10.74a9.977,9.977,0,0,0,1.918,6.558,6.733,6.733,0,0,0,5.481,2.3,6.588,6.588,0,0,0,5.457-2.512,10.853,10.853,0,0,0,1.992-6.917,9.452,9.452,0,0,0-1.979-6.348,6.76,6.76,0,0,0-5.42-2.314,6.648,6.648,0,0,0-5.444,2.462,10.424,10.424,0,0,0-2,6.769" transform="translate(-258.657 -14.063)" fill="#e9a6a6"/>
      <path id="Контур_1115" data-name="Контур 1115" d="M470.413,44.163V22.212h2.9V25.6a8.924,8.924,0,0,1,3.279-3.155,9.235,9.235,0,0,1,4.467-1.052,7.863,7.863,0,0,1,5.815,2.079,7.828,7.828,0,0,1,2.079,5.791v14.9h-3.093V30.626a7.359,7.359,0,0,0-1.373-4.888,5.3,5.3,0,0,0-4.245-1.6,6.168,6.168,0,0,0-5.135,2.067q-1.647,2.066-1.646,6.5V44.163Z" transform="translate(-309.225 -14.064)" fill="#e9a6a6"/>
      <path id="Контур_1116" data-name="Контур 1116" d="M536.938,2.326a2.222,2.222,0,0,1,.693-1.646A2.284,2.284,0,0,1,539.289,0a2.326,2.326,0,0,1,1.671.681,2.2,2.2,0,0,1,.7,1.646,2.233,2.233,0,0,1-.68,1.658,2.326,2.326,0,0,1-1.7.668,2.294,2.294,0,0,1-1.67-.668,2.231,2.231,0,0,1-.681-1.658m.767,5.822h3.143V30.1h-3.143Z" transform="translate(-352.955 0)" fill="#e9a6a6"/>
      <path id="Контур_1117" data-name="Контур 1117" d="M114.718,42.54A13.612,13.612,0,1,1,128.33,28.928,13.627,13.627,0,0,1,114.718,42.54m0-24.266a10.654,10.654,0,1,0,10.654,10.654,10.666,10.666,0,0,0-10.654-10.654" transform="translate(-66.462 -10.068)" fill="#fff"/>
      <path id="Контур_1118" data-name="Контур 1118" d="M166.269,16.278a6,6,0,0,1-.38.675,1.248,1.248,0,0,1-.181.252s-.008.006-.011.01l0,.005s-.007,0-.01.007c-.123.12-.275.208-.4.33a4.337,4.337,0,0,0-.353.459.832.832,0,0,1-.456.332l-.018,0-.005.007a.142.142,0,0,1-.021.2.941.941,0,0,1-.431.2c-.035.022-.071.04-.108.058a10.611,10.611,0,1,1-1.159-.068h.006c-.2-.115-.4-.264-.593-.4a.177.177,0,0,1-.054-.06,6.5,6.5,0,0,1-.871-.535,2.064,2.064,0,0,1-1.026-1.713,13.619,13.619,0,1,0,6.071.231" transform="translate(-98.026 -10.548)" fill="#fff"/>
      <path id="Контур_1119" data-name="Контур 1119" d="M181.232,1.2h-7.617l-3.272,3.272,7.081,7.081L178.984,10l5.52-5.52Zm-3.808,7.928-.148-.148h0c-.01-.007-.013-.017-.022-.025l-4.484-4.484,1.558-1.557h6.2l1.558,1.557L179.26,7.3Z" transform="translate(-111.975 -0.791)" fill="#fff"/>
      <path id="Контур_1120" data-name="Контур 1120" d="M234.527,103.083h4.325V108.5h-4.325Zm3.473.686h-2.622v4.044H238Z" transform="translate(-154.166 -67.761)" fill="#fff"/>
      <path id="Контур_1121" data-name="Контур 1121" d="M254.81,100.461l-1.987,4.881h-.916l1.964-4.734h-3.179V98.276h.851v1.647h3.266Z" transform="translate(-164.792 -64.601)" fill="#fff"/>
      <path id="Контур_1122" data-name="Контур 1122" d="M266.961,107.54a5.1,5.1,0,0,0,.93.294,4.38,4.38,0,0,0,.929.106,3.409,3.409,0,0,0,1.182-.191,1.776,1.776,0,0,0,.819-.579,1.529,1.529,0,0,0,.3-.959v-3.128h.828v3.207a2.03,2.03,0,0,1-.412,1.29,2.472,2.472,0,0,1-1.111.789,4.42,4.42,0,0,1-1.564.262,6.325,6.325,0,0,1-1.38-.159,6.247,6.247,0,0,1-1.348-.467v-4.923h.828Zm1.56-1.028a2.764,2.764,0,0,0,.087-.734v-2.7h.833v2.544a2.615,2.615,0,0,1-.115.817,1.5,1.5,0,0,1-.355.591l-.708-.027a1.154,1.154,0,0,0,.258-.494" transform="translate(-174.942 -67.761)" fill="#fff"/>
      <path id="Контур_1123" data-name="Контур 1123" d="M287.507,103.768h-.63v-.686h1.486V108.5h-.856Z" transform="translate(-188.578 -67.761)" fill="#fff"/>
      <path id="Контур_1124" data-name="Контур 1124" d="M296.008,104.862a2.142,2.142,0,0,1,.214-.711,1.508,1.508,0,0,1,.393-.513l.092-.064-.009-.014q-.207.037-.518.117t-.568.168l-.2-.644a7.786,7.786,0,0,1,1.2-.3,7.188,7.188,0,0,1,1.219-.115,2.254,2.254,0,0,1,1.672.582,2.344,2.344,0,0,1,.582,1.709v3.229h-2.231v-.686h1.38v-2.64a1.633,1.633,0,0,0-.327-1.1,1.185,1.185,0,0,0-.948-.377.947.947,0,0,0-.745.343,1.679,1.679,0,0,0-.368.932l-.409,3.529h-.842Z" transform="translate(-194.191 -67.567)" fill="#fff"/>
      <path id="Контур_1125" data-name="Контур 1125" d="M323.061,103.083v3.248a2.418,2.418,0,0,1-.3,1.245,1.944,1.944,0,0,1-.847.777,2.859,2.859,0,0,1-1.263.265,5.417,5.417,0,0,1-1.927-.382l.207-.635a4.961,4.961,0,0,0,1.44.35,2.062,2.062,0,0,1-.456-.916l-.9-3.952h.856l.879,4a4.4,4.4,0,0,0,.124.474,1.766,1.766,0,0,0,.161.354,1.462,1.462,0,0,0,.863-.52,1.612,1.612,0,0,0,.31-1.026v-3.28Z" transform="translate(-209.512 -67.761)" fill="#fff"/>
      <path id="Контур_1126" data-name="Контур 1126" d="M335.787,103.768h-.63v-.686h1.486V108.5h-.856Z" transform="translate(-220.315 -67.761)" fill="#fff"/>
      <path id="Контур_1127" data-name="Контур 1127" d="M345.521,104.721a.933.933,0,0,0-.26-.7.971.971,0,0,0-.711-.255h-1.822v-.686h1.849a2.127,2.127,0,0,1,.962.2,1.42,1.42,0,0,1,.619.584,1.845,1.845,0,0,1,.214.915V108.5h-.851Z" transform="translate(-225.292 -67.761)" fill="#fff"/>
      <path id="Контур_1128" data-name="Контур 1128" d="M357.149,103.768h-.994v-.686H358v3.023h-.856Z" transform="translate(-234.118 -67.761)" fill="#fff"/>
      <path id="Контур_1129" data-name="Контур 1129" d="M368.92,106.133l1.716,2.369h-.952l-2.415-3.331a1.149,1.149,0,0,0-.492,1.058V108.5h-.828v-1.964a2.444,2.444,0,0,1,.239-1.153,1.532,1.532,0,0,1,.741-.678l-1.173-1.624h.957l1.679,2.319,1.307-2.319h.961Z" transform="translate(-240.428 -67.761)" fill="#fff"/>
      <path id="Контур_1130" data-name="Контур 1130" d="M386.587,100.461l-1.987,4.881h-.916l1.964-4.734H382.47V98.276h.851v1.647h3.267Z" transform="translate(-251.416 -64.601)" fill="#fff"/>
      <path id="Контур_1131" data-name="Контур 1131" d="M405.869,103.768h-2.7v-.686h3.538v7.333h-.842Z" transform="translate(-265.025 -67.761)" fill="#fff"/>
      <path id="Контур_1132" data-name="Контур 1132" d="M417.647,103.768h-.994v-.686H418.5v3.023h-.856Z" transform="translate(-273.887 -67.761)" fill="#fff"/>
      <path id="Контур_1133" data-name="Контур 1133" d="M427.811,104.721a.934.934,0,0,0-.26-.7.97.97,0,0,0-.711-.255h-1.822v-.686h1.849a2.125,2.125,0,0,1,.961.2,1.418,1.418,0,0,1,.619.584,1.845,1.845,0,0,1,.214.915V108.5h-.851Z" transform="translate(-279.385 -67.761)" fill="#fff"/>
      <path id="Контур_1134" data-name="Контур 1134" d="M441.405,106l1.431,2.066v.432h-4.012v-.69h2.912l-3.239-4.729h.961l1.445,2.181,1.2-2.181h.961Z" transform="translate(-288.246 -67.761)" fill="#fff"/>
      <path id="Контур_1135" data-name="Контур 1135" d="M455.988,107.54a5.1,5.1,0,0,0,.93.294,4.379,4.379,0,0,0,.929.106,3.409,3.409,0,0,0,1.182-.191,1.776,1.776,0,0,0,.819-.579,1.529,1.529,0,0,0,.3-.959v-3.128h.828v3.207a2.03,2.03,0,0,1-.412,1.29,2.472,2.472,0,0,1-1.111.789,4.42,4.42,0,0,1-1.564.262,6.325,6.325,0,0,1-1.38-.159A6.247,6.247,0,0,1,455.16,108v-4.923h.828Zm1.56-1.028a2.761,2.761,0,0,0,.087-.734v-2.7h.833v2.544a2.614,2.614,0,0,1-.115.817,1.5,1.5,0,0,1-.355.591l-.708-.027a1.153,1.153,0,0,0,.258-.494" transform="translate(-299.199 -67.761)" fill="#fff"/>
      <path id="Контур_1136" data-name="Контур 1136" d="M486.671,105.1a1.392,1.392,0,0,0-.317-1.019,1.408,1.408,0,0,0-1.021-.315h-1.964v-.686h2.006a2.259,2.259,0,0,1,1.608.515,2,2,0,0,1,.545,1.528V108.5h-.856Zm-3.294,1.55a2.309,2.309,0,0,1,.239-1.145h.7a3.2,3.2,0,0,0-.083.469,5.947,5.947,0,0,0-.027.621v1.9h-.828Z" transform="translate(-317.741 -67.761)" fill="#fff"/>
      <path id="Контур_1137" data-name="Контур 1137" d="M499.911,104.862a2.142,2.142,0,0,1,.214-.711,1.508,1.508,0,0,1,.393-.513l.092-.064-.009-.014q-.207.037-.518.117t-.568.168l-.2-.644a7.787,7.787,0,0,1,1.2-.3,7.188,7.188,0,0,1,1.219-.115,2.254,2.254,0,0,1,1.672.582,2.344,2.344,0,0,1,.582,1.709v3.229h-2.231v-.686h1.38v-2.64a1.633,1.633,0,0,0-.327-1.1,1.185,1.185,0,0,0-.948-.377.948.948,0,0,0-.745.343,1.68,1.68,0,0,0-.368.932l-.409,3.529H499.5Z" transform="translate(-328.226 -67.567)" fill="#fff"/>
      <path id="Контур_1138" data-name="Контур 1138" d="M527.039,100.461l-1.987,4.881h-.916l1.964-4.734h-3.179V98.276h.851v1.647h3.266Z" transform="translate(-343.741 -64.601)" fill="#fff"/>
      <path id="Контур_1139" data-name="Контур 1139" d="M537.019,108.337l.138-.639a5.038,5.038,0,0,0,1.3.2,1.656,1.656,0,0,0,1.171-.375,1.4,1.4,0,0,0,.4-1.075v-2.677h-2.82v-.686h3.671v3.179a2.29,2.29,0,0,1-.612,1.735,2.364,2.364,0,0,1-1.7.584,5.655,5.655,0,0,1-1.546-.244" transform="translate(-353.008 -67.761)" fill="#fff"/>
    </g>
  </g>
</svg>
