<svg xmlns="http://www.w3.org/2000/svg" width="20.744" height="23.049" viewBox="0 0 20.744 23.049">
  <path id="Icon_material-date-range" data-name="Icon material-date-range" d="M11.415,13.372H9.11v2.3h2.3Zm4.61,0h-2.3v2.3h2.3Zm4.61,0h-2.3v2.3h2.3Zm2.3-8.067H21.786V3h-2.3V5.3H10.262V3h-2.3V5.3H6.8a2.294,2.294,0,0,0-2.293,2.3L4.5,23.744a2.3,2.3,0,0,0,2.3,2.3H22.939a2.312,2.312,0,0,0,2.3-2.3V7.61A2.312,2.312,0,0,0,22.939,5.3Zm0,18.439H6.8V11.067H22.939Z" transform="translate(-4.5 -3)" fill="#c4c4c4"/>
</svg>
