<svg xmlns="http://www.w3.org/2000/svg" width="29.192" height="33.219" viewBox="0 0 29.192 33.219">
  <path id="Icon_awesome-calendar-alt" data-name="Icon awesome-calendar-alt" d="M0,29.2a3.021,3.021,0,0,0,3.021,3.021H25.171A3.021,3.021,0,0,0,28.192,29.2V12.082H0ZM20.137,16.865a.757.757,0,0,1,.755-.755h2.517a.757.757,0,0,1,.755.755v2.517a.757.757,0,0,1-.755.755H20.892a.757.757,0,0,1-.755-.755Zm0,8.055a.757.757,0,0,1,.755-.755h2.517a.757.757,0,0,1,.755.755v2.517a.757.757,0,0,1-.755.755H20.892a.757.757,0,0,1-.755-.755Zm-8.055-8.055a.757.757,0,0,1,.755-.755h2.517a.757.757,0,0,1,.755.755v2.517a.757.757,0,0,1-.755.755H12.837a.757.757,0,0,1-.755-.755Zm0,8.055a.757.757,0,0,1,.755-.755h2.517a.757.757,0,0,1,.755.755v2.517a.757.757,0,0,1-.755.755H12.837a.757.757,0,0,1-.755-.755ZM4.027,16.865a.757.757,0,0,1,.755-.755H7.3a.757.757,0,0,1,.755.755v2.517a.757.757,0,0,1-.755.755H4.783a.757.757,0,0,1-.755-.755Zm0,8.055a.757.757,0,0,1,.755-.755H7.3a.757.757,0,0,1,.755.755v2.517a.757.757,0,0,1-.755.755H4.783a.757.757,0,0,1-.755-.755ZM25.171,4.027H22.151V1.007A1.01,1.01,0,0,0,21.144,0H19.13a1.01,1.01,0,0,0-1.007,1.007V4.027H10.068V1.007A1.01,1.01,0,0,0,9.062,0H7.048A1.01,1.01,0,0,0,6.041,1.007V4.027H3.021A3.021,3.021,0,0,0,0,7.048v3.021H28.192V7.048A3.021,3.021,0,0,0,25.171,4.027Z" transform="translate(0.5 0.5)" fill="none" stroke="#fff" stroke-width="1"/>
</svg>
