<svg xmlns="http://www.w3.org/2000/svg" width="50.022" height="45.12" viewBox="0 0 50.022 45.12">
  <g id="Icon_material-photo-camera" data-name="Icon material-photo-camera" transform="translate(-2.5 -2.5)">
    <path id="Контур_1165" data-name="Контур 1165" d="M28.887,21.044A7.844,7.844,0,1,1,21.044,13.2,7.844,7.844,0,0,1,28.887,21.044Z" transform="translate(6.468 6.468)" fill="#e9a6a6" stroke="#fff" stroke-width="1"/>
    <path id="Контур_1166" data-name="Контур 1166" d="M20.158,3,15.672,7.9H7.9A4.917,4.917,0,0,0,3,12.8V42.218a4.917,4.917,0,0,0,4.9,4.9H47.12a4.917,4.917,0,0,0,4.9-4.9V12.8a4.917,4.917,0,0,0-4.9-4.9H39.35L34.865,3Zm7.353,36.767A12.256,12.256,0,1,1,39.767,27.511,12.26,12.26,0,0,1,27.511,39.767Z" transform="translate(0 0)" fill="#e9a6a6" stroke="#fff" stroke-width="1"/>
  </g>
</svg>
