<svg xmlns="http://www.w3.org/2000/svg" width="33" height="33" viewBox="0 0 33 33">
  <path id="Icon_awesome-envelope-open-text" data-name="Icon awesome-envelope-open-text" d="M11,13.5H21a1,1,0,0,0,1-1v-1a1,1,0,0,0-1-1H11a1,1,0,0,0-1,1v1A1,1,0,0,0,11,13.5Zm-1,5a1,1,0,0,0,1,1H21a1,1,0,0,0,1-1v-1a1,1,0,0,0-1-1H11a1,1,0,0,0-1,1Zm6,7.571a4.993,4.993,0,0,1-2.929-.949L0,15.679V29a3,3,0,0,0,3,3H29a3,3,0,0,0,3-3V15.679L18.929,25.121A5,5,0,0,1,16,26.071ZM30.851,10.184C30.3,9.751,29.773,9.342,29,8.759V6a3,3,0,0,0-3-3H21.153l-.565-.41C19.538,1.823,17.45-.022,16,0c-1.45-.022-3.537,1.823-4.588,2.59L10.847,3H6A3,3,0,0,0,3,6V8.759c-.773.583-1.3.992-1.851,1.426A3,3,0,0,0,0,12.545v.666l6,4.334V6H26V17.545l6-4.334v-.666a3,3,0,0,0-1.149-2.361Z" transform="translate(0.5 0.5)" fill="none" stroke="#fff" stroke-width="1"/>
</svg>
