<svg xmlns="http://www.w3.org/2000/svg" width="16.876" height="36" viewBox="0 0 16.876 36">
  <path id="Icon_awesome-female" data-name="Icon awesome-female" d="M9,0A4.5,4.5,0,1,1,4.5,4.5,4.5,4.5,0,0,1,9,0m8.387,24.9L14.012,11.4a1.687,1.687,0,0,0-1.637-1.278h-.8a6.179,6.179,0,0,1-5.153,0h-.8A1.687,1.687,0,0,0,3.988,11.4L.613,24.9A1.688,1.688,0,0,0,2.25,27H6.188v7.313A1.687,1.687,0,0,0,7.875,36h2.25a1.687,1.687,0,0,0,1.688-1.687V27H15.75A1.688,1.688,0,0,0,17.387,24.9Z" transform="translate(-0.562)" fill="#e9a6a6"/>
</svg>
