<svg xmlns="http://www.w3.org/2000/svg" width="27.522" height="21.759" viewBox="0 0 27.522 21.759">
  <path id="Icon_material-contact-phone" data-name="Icon material-contact-phone" d="M25.229,4.5H2.294A2.365,2.365,0,0,0,0,6.918V23.842a2.365,2.365,0,0,0,2.294,2.418H25.229a2.356,2.356,0,0,0,2.282-2.418l.011-16.924A2.365,2.365,0,0,0,25.229,4.5ZM9.174,8.127a3.532,3.532,0,0,1,3.44,3.627,3.532,3.532,0,0,1-3.44,3.627,3.532,3.532,0,0,1-3.44-3.627A3.532,3.532,0,0,1,9.174,8.127Zm6.881,14.506H2.294V21.424c0-2.418,4.587-3.747,6.881-3.747s6.881,1.33,6.881,3.747ZM20.47,17.8H22.35l1.732,2.418L21.8,22.621A9.107,9.107,0,0,1,18.669,17.8a9.263,9.263,0,0,1,0-4.835A9.061,9.061,0,0,1,21.8,8.139l2.282,2.406L22.35,12.962H20.47a7.483,7.483,0,0,0,0,4.835Z" transform="translate(0 -4.5)" fill="#c4c4c4"/>
</svg>
